<?xml version="1.0" encoding="UTF-8"?>
<svg version="1.1" xmlns="http://www.w3.org/2000/svg" width="256" height="256">
<path d="M0 0 C0.495 6.435 0.495 6.435 1 13 C-1.49092811 14.24546405 -2.41080733 13.7767578 -5 13 C-5.309375 13.94875 -5.61875 14.8975 -5.9375 15.875 C-7 19 -7 19 -8 21 C-8.08308638 22.37548156 -8.10736016 23.75485796 -8.09765625 25.1328125 C-8.09443359 25.93847656 -8.09121094 26.74414062 -8.08789062 27.57421875 C-8.07951172 28.41597656 -8.07113281 29.25773437 -8.0625 30.125 C-8.05798828 30.97449219 -8.05347656 31.82398437 -8.04882812 32.69921875 C-8.03702874 34.79950909 -8.01909306 36.8997633 -8 39 C-4.7 39 -1.4 39 2 39 C2.33 33.06 2.66 27.12 3 21 C5.31 21 7.62 21 10 21 C11 22 11 22 11.09765625 25.81640625 C11.09098089 27.39846682 11.07901875 28.98051159 11.0625 30.5625 C11.05798828 31.36880859 11.05347656 32.17511719 11.04882812 33.00585938 C11.03700518 35.00393756 11.01906914 37.00197783 11 39 C17.93 38.01 17.93 38.01 25 37 C23.68 35.68 22.36 34.36 21 33 C20.5 29.5 20.5 29.5 21 26 C22.86708505 23.63502561 24.32061431 22.33969285 27 21 C30.75225691 20.58308257 32.54011122 20.72406673 35.8125 22.6875 C38.20339329 25.21501576 38.7153924 26.58470886 39 30 C37.68 30.66 36.36 31.32 35 32 C35.66 32.33 36.32 32.66 37 33 C39 35 39 35 39.5625 38.9375 C39.3800558 42.13321611 39.08850117 42.88937354 37 45.5 C32.88248556 47.55875722 30.58746602 47.50971845 26 47 C23.5 45.5 23.5 45.5 22 44 C21.67 44.99 21.34 45.98 21 47 C8.33333333 47 -4.33333333 47 -17 47 C-18.16144531 47.05800781 -19.32289063 47.11601562 -20.51953125 47.17578125 C-21.9504881 47.22237054 -23.38147976 47.26790008 -24.8125 47.3125 C-25.52470703 47.35439453 -26.23691406 47.39628906 -26.97070312 47.43945312 C-31.14776298 47.53605488 -32.75932392 47.2013438 -36.01171875 44.48046875 C-36.66785156 43.66191406 -37.32398438 42.84335938 -38 42 C-38.495 44.475 -38.495 44.475 -39 47 C-41.31 47 -43.62 47 -46 47 C-46 38.42 -46 29.84 -46 21 C-43.69 21 -41.38 21 -39 21 C-38.67 22.65 -38.34 24.3 -38 26 C-37.52949219 25.32453125 -37.05898437 24.6490625 -36.57421875 23.953125 C-35.64029297 22.61507812 -35.64029297 22.61507812 -34.6875 21.25 C-34.07261719 20.36828125 -33.45773438 19.4865625 -32.82421875 18.578125 C-31.25166935 16.35567831 -29.64631488 14.16807006 -28 12 C-21.44396816 12.49479486 -21.44396816 12.49479486 -19.1875 15.0625 C-18.795625 15.701875 -18.40375 16.34125 -18 17 C-17.34 17 -16.68 17 -16 17 C-14.3553326 14.53673288 -14.3553326 14.53673288 -13 12 C-13.66 11.67 -14.32 11.34 -15 11 C-14.8359375 9.234375 -14.8359375 9.234375 -14 7 C-11.6015625 5.078125 -11.6015625 5.078125 -8.625 3.25 C-7.64789063 2.63640625 -6.67078125 2.0228125 -5.6640625 1.390625 C-3 0 -3 0 0 0 Z M-26 22 C-27.28564674 23.68759607 -28.50372181 25.42694973 -29.6875 27.1875 C-30.35136719 28.15042969 -31.01523438 29.11335938 -31.69921875 30.10546875 C-33.30911807 32.90061029 -33.30911807 32.90061029 -32.3671875 35.65625 C-30.51698266 38.82802973 -28.4689031 41.27787607 -26 44 C-25.67 44 -25.34 44 -25 44 C-25 36.74 -25 29.48 -25 22 C-25.33 22 -25.66 22 -26 22 Z M29 29 C29.66 29.66 30.32 30.32 31 31 C31 30.34 31 29.68 31 29 C30.34 29 29.68 29 29 29 Z M28 37 C28 37.66 28 38.32 28 39 C28.99 38.67 29.98 38.34 31 38 C30.01 37.67 29.02 37.34 28 37 Z " fill="#F96D36" transform="translate(185,95)"/>
<path d="M0 0 C2.22956719 1.83611416 3.19209525 3.03609528 4.125 5.75 C4.125 6.74 4.125 7.73 4.125 8.75 C2.145 9.41 0.165 10.07 -1.875 10.75 C-0.885 11.430625 0.105 12.11125 1.125 12.8125 C3.83095608 15.07601303 4.08957149 15.55160033 4.75 19.25 C4.04063321 23.22245401 2.95268293 24.92231707 0.125 27.75 C-3.32454139 29.4747707 -7.09606229 29.11549311 -10.875 28.75 C-13.875 27.5 -13.875 27.5 -15.875 25.75 C-16.6875 23.5625 -16.6875 23.5625 -16.875 21.75 C-17.535 21.75 -18.195 21.75 -18.875 21.75 C-19.101875 22.348125 -19.32875 22.94625 -19.5625 23.5625 C-21.31676201 26.48627001 -22.74349164 27.38847463 -25.875 28.75 C-29.91714697 29.3555038 -32.96544217 29.17446032 -36.6875 27.4375 C-39.88758327 24.96886433 -41.57723538 23.64329386 -42.875 19.75 C-43.34969459 12.69938918 -43.34969459 12.69938918 -41.875 9.75 C-43.195 9.75 -44.515 9.75 -45.875 9.75 C-45.875 16.02 -45.875 22.29 -45.875 28.75 C-48.185 28.75 -50.495 28.75 -52.875 28.75 C-52.875 22.48 -52.875 16.21 -52.875 9.75 C-54.525 9.75 -56.175 9.75 -57.875 9.75 C-57.75125 11.0803125 -57.75125 11.0803125 -57.625 12.4375 C-57.92969186 16.47466718 -59.09540005 17.88864711 -61.875 20.75 C-64.58379335 22.10439668 -66.88433268 21.81501451 -69.875 21.75 C-69.875 24.06 -69.875 26.37 -69.875 28.75 C-71.855 28.75 -73.835 28.75 -75.875 28.75 C-75.875 20.17 -75.875 11.59 -75.875 2.75 C-63.5 2.75 -63.5 2.75 -59.875 5.75 C-59.215 4.76 -58.555 3.77 -57.875 2.75 C-55.99560547 2.40942383 -55.99560547 2.40942383 -53.7421875 2.45703125 C-52.93652344 2.46669922 -52.13085938 2.47636719 -51.30078125 2.48632812 C-50.45902344 2.51146484 -49.61726563 2.53660156 -48.75 2.5625 C-47.90050781 2.57603516 -47.05101563 2.58957031 -46.17578125 2.60351562 C-44.07525163 2.63891781 -41.97504707 2.69272599 -39.875 2.75 C-39.38 4.235 -39.38 4.235 -38.875 5.75 C-38.070625 5.234375 -37.26625 4.71875 -36.4375 4.1875 C-31.90323734 2.35788524 -28.55746518 2.44166414 -23.875 3.75 C-20.8125 5.8125 -20.8125 5.8125 -18.875 7.75 C-18.00875 6.079375 -18.00875 6.079375 -17.125 4.375 C-15.89634625 2.26325137 -15.02213693 0.87086248 -13.125 -0.6875 C-8.39298318 -1.8705042 -4.42845146 -1.92541368 0 0 Z M-7.875 7.75 C-7.875 8.41 -7.875 9.07 -7.875 9.75 C-6.885 9.75 -5.895 9.75 -4.875 9.75 C-4.875 9.09 -4.875 8.43 -4.875 7.75 C-5.865 7.75 -6.855 7.75 -7.875 7.75 Z M-69.875 9.75 C-69.875 11.4 -69.875 13.05 -69.875 14.75 C-68.225 14.75 -66.575 14.75 -64.875 14.75 C-64.545 13.76 -64.215 12.77 -63.875 11.75 C-64.535 11.09 -65.195 10.43 -65.875 9.75 C-67.195 9.75 -68.515 9.75 -69.875 9.75 Z M-34.75 10.875 C-36.40354531 13.63090884 -36.26865568 15.60075452 -35.875 18.75 C-34.875 20.75 -34.875 20.75 -32.875 21.75 C-29.72575452 22.14365568 -27.75590884 22.27854531 -25 20.625 C-23.34645469 17.86909116 -23.48134432 15.89924548 -23.875 12.75 C-24.875 10.75 -24.875 10.75 -26.875 9.75 C-30.02424548 9.35634432 -31.99409116 9.22145469 -34.75 10.875 Z M-17.875 9.75 C-16.875 12.75 -16.875 12.75 -16.875 12.75 Z M-16.875 12.75 C-16.875 14.73 -16.875 16.71 -16.875 18.75 C-14.235 18.42 -11.595 18.09 -8.875 17.75 C-11.43491624 15.73863724 -13.92090299 14.12154504 -16.875 12.75 Z M-8.875 17.75 C-8.875 18.41 -8.875 19.07 -8.875 19.75 C-7.555 19.42 -6.235 19.09 -4.875 18.75 C-6.195 18.42 -7.515 18.09 -8.875 17.75 Z " fill="#18B8A3" transform="translate(133.875,113.25)"/>
<path d="M0 0 C-0.433125 0.8353125 -0.433125 0.8353125 -0.875 1.6875 C-3.22383474 6.51566031 -4.29375849 10.18996109 -4.3125 15.625 C-4.32925781 16.75164062 -4.34601562 17.87828125 -4.36328125 19.0390625 C-4.24418215 21.98813458 -4.24418215 21.98813458 -2.61328125 23.91015625 C-1.0286116 25.22754686 -1.0286116 25.22754686 1.125 24.8125 C3.18964132 24.1564434 3.18964132 24.1564434 4 22 C4.15067214 20.5534758 4.24861036 19.1012066 4.31640625 17.6484375 C4.35830078 16.79765625 4.40019531 15.946875 4.44335938 15.0703125 C4.48267578 14.18085937 4.52199219 13.29140625 4.5625 12.375 C4.60568359 11.4778125 4.64886719 10.580625 4.69335938 9.65625 C4.79956861 7.43765717 4.90161194 5.2189512 5 3 C7.31 3 9.62 3 12 3 C12.14592789 6.70791544 12.23427895 10.41508726 12.3125 14.125 C12.35439453 15.17171875 12.39628906 16.2184375 12.43945312 17.296875 C12.57759689 26.02756089 12.57759689 26.02756089 9.60546875 29.6796875 C5.68962466 33.16696095 3.33651931 33.28826834 -1.74609375 33.21484375 C-4.87351354 32.91673614 -6.61706865 32.03250027 -9 30 C-11.97922236 25.97984452 -12.33759904 23.14076827 -12.1875 18.1875 C-12.16042969 17.02605469 -12.13335938 15.86460938 -12.10546875 14.66796875 C-12.05326172 13.34732422 -12.05326172 13.34732422 -12 12 C-12.33 13.65 -12.66 15.3 -13 17 C-13.99 16.67 -14.98 16.34 -16 16 C-16 14.35 -16 12.7 -16 11 C-17.32 11 -18.64 11 -20 11 C-19.13877799 6.3291371 -16.72748025 3.81302832 -13 1 C-8.70919873 -0.27811102 -4.45965148 -0.08919303 0 0 Z " fill="#11B8A3" transform="translate(44,109)"/>
<path d="M0 0 C2.22956719 1.83611416 3.19209525 3.03609528 4.125 5.75 C4.125 6.74 4.125 7.73 4.125 8.75 C2.145 9.41 0.165 10.07 -1.875 10.75 C-0.39 11.7709375 -0.39 11.7709375 1.125 12.8125 C3.83095608 15.07601303 4.08957149 15.55160033 4.75 19.25 C4.04063321 23.22245401 2.95268293 24.92231707 0.125 27.75 C-3.3242432 29.4746216 -7.09631431 29.11610104 -10.875 28.75 C-13.94640489 27.4430192 -15.36693341 26.5241967 -17.1875 23.75 C-17.875 21.75 -17.875 21.75 -17.875 18.75 C-15.895 18.09 -13.915 17.43 -11.875 16.75 C-12.679375 16.21375 -13.48375 15.6775 -14.3125 15.125 C-16.875 12.75 -16.875 12.75 -17.875 9.875 C-17.875 6.00173287 -16.99769877 3.9706464 -14.875 0.75 C-10.68085534 -2.6674512 -4.67644422 -2.03323662 0 0 Z M-7.875 7.75 C-7.875 8.41 -7.875 9.07 -7.875 9.75 C-6.885 9.75 -5.895 9.75 -4.875 9.75 C-4.875 9.09 -4.875 8.43 -4.875 7.75 C-5.865 7.75 -6.855 7.75 -7.875 7.75 Z M-8.875 17.75 C-8.875 18.41 -8.875 19.07 -8.875 19.75 C-7.555 19.42 -6.235 19.09 -4.875 18.75 C-6.195 18.42 -7.515 18.09 -8.875 17.75 Z " fill="#F4713E" transform="translate(133.875,113.25)"/>
<path d="M0 0 C2.31 0 4.62 0 7 0 C7.33 1.65 7.66 3.3 8 5 C8.99 4.34 9.98 3.68 11 3 C10.34 4.98 9.68 6.96 9 9 C8.01 9 7.02 9 6 9 C6 6.69 6 4.38 6 2 C4.68 2.33 3.36 2.66 2 3 C1.67 10.26 1.34 17.52 1 25 C2.65 25 4.3 25 6 25 C6 22.03 6 19.06 6 16 C7.32 15.67 8.64 15.34 10 15 C11.77148372 12.52066803 11.77148372 12.52066803 13 10 C13.66 10.33 14.32 10.66 15 11 C15 12.32 15 13.64 15 15 C17.475 18.465 17.475 18.465 20 22 C20.33 15.07 20.66 8.14 21 1 C21.99 1 22.98 1 24 1 C23.67 8.92 23.34 16.84 23 25 C24.65 25 26.3 25 28 25 C28 21.7 28 18.4 28 15 C28.33 15 28.66 15 29 15 C29 18.63 29 22.26 29 26 C26.43571485 26.13559675 23.87864784 26.23433188 21.3125 26.3125 C20.59126953 26.35439453 19.87003906 26.39628906 19.12695312 26.43945312 C14.80422604 26.53814552 13.45467038 26.37938214 9.98046875 23.48046875 C9.00013672 22.25263672 9.00013672 22.25263672 8 21 C7.67 22.65 7.34 24.3 7 26 C4.69 26 2.38 26 0 26 C0 17.42 0 8.84 0 0 Z " fill="#E7774B" transform="translate(139,116)"/>
<path d="M0 0 C5.94 0 11.88 0 18 0 C18.33 0.99 18.66 1.98 19 3 C19.99 3 20.98 3 22 3 C21.34 3.495 20.68 3.99 20 4.5 C17.1172783 8.10340212 17.69799003 10.46985042 18 15 C20.35785318 14.10664203 20.35785318 14.10664203 21.125 10.9375 C21.558125 9.4834375 21.558125 9.4834375 22 8 C23.60725635 11.21451269 23.05748185 14.43612536 23 18 C24.258125 18.04125 25.51625 18.0825 26.8125 18.125 C27.52019531 18.14820313 28.22789063 18.17140625 28.95703125 18.1953125 C31.31359719 18.13254462 31.31359719 18.13254462 34 16 C34 16.66 34 17.32 34 18 C34.66 18.33 35.32 18.66 36 19 C36.625 21.0625 36.625 21.0625 37 23 C33.27311267 25.7951655 30.4597021 26.47227635 25.92578125 26.29296875 C21.78109182 25.6624379 18.63021186 23.15625423 16 20 C14.70278551 16.10835652 14.86966007 13.10570774 15 9 C15.33 8.34 15.66 7.68 16 7 C14.68 6.67 13.36 6.34 12 6 C13.65 6 15.3 6 17 6 C17 4.68 17 3.36 17 2 C11.39 1.67 5.78 1.34 0 1 C0 0.67 0 0.34 0 0 Z " fill="#28BCA8" transform="translate(76,116)"/>
<path d="M0 0 C1.65 0 3.3 0 5 0 C5.33 5.94 5.66 11.88 6 18 C9.3 18.33 12.6 18.66 16 19 C16 20.65 16 22.3 16 24 C10.72 24 5.44 24 0 24 C0 16.08 0 8.16 0 0 Z " fill="#FB6C35" transform="translate(189,117)"/>
<path d="M0 0 C2.31 0 4.62 0 7 0 C8 1 8 1 8.09765625 4.81640625 C8.09098089 6.39846682 8.07901875 7.98051159 8.0625 9.5625 C8.05798828 10.36880859 8.05347656 11.17511719 8.04882812 12.00585938 C8.03700518 14.00393756 8.01906914 16.00197783 8 18 C10.27130656 17.69095829 12.54203305 17.37765093 14.8125 17.0625 C16.07707031 16.88847656 17.34164062 16.71445313 18.64453125 16.53515625 C21.98321703 16.09607545 21.98321703 16.09607545 25 15 C25 15.99 25 16.98 25 18 C26.32 17.34 27.64 16.68 29 16 C29 16.99 29 17.98 29 19 C25.7 18.67 22.4 18.34 19 18 C18.67 20.64 18.34 23.28 18 26 C15.04160645 26.02689449 12.08345573 26.04678741 9.125 26.0625 C8.28324219 26.07087891 7.44148438 26.07925781 6.57421875 26.08789062 C5.76855469 26.09111328 4.96289062 26.09433594 4.1328125 26.09765625 C3.01737061 26.10551147 3.01737061 26.10551147 1.87939453 26.11352539 C0 26 0 26 -2 25 C-2 23.35 -2 21.7 -2 20 C-4.97 20 -7.94 20 -11 20 C-11 19.34 -11 18.68 -11 18 C-7.7 18 -4.4 18 -1 18 C-0.505 9.09 -0.505 9.09 0 0 Z M1 1 C1 8.92 1 16.84 1 25 C6.28 25 11.56 25 17 25 C17 23.35 17 21.7 17 20 C13.7 19.67 10.4 19.34 7 19 C6.67 13.06 6.34 7.12 6 1 C4.35 1 2.7 1 1 1 Z " fill="#E17F58" transform="translate(188,116)"/>
<path d="M0 0 C-0.433125 0.8353125 -0.433125 0.8353125 -0.875 1.6875 C-2.0413253 4.08494645 -3.0339881 6.51596939 -4 9 C-4.66 9 -5.32 9 -6 9 C-6 8.34 -6 7.68 -6 7 C-7.65 7.33 -9.3 7.66 -11 8 C-11 9.32 -11 10.64 -11 12 C-11.99 12.495 -11.99 12.495 -13 13 C-13 14.32 -13 15.64 -13 17 C-13.99 16.67 -14.98 16.34 -16 16 C-16 14.35 -16 12.7 -16 11 C-17.32 11 -18.64 11 -20 11 C-19.13877799 6.3291371 -16.72748025 3.81302832 -13 1 C-8.70919873 -0.27811102 -4.45965148 -0.08919303 0 0 Z " fill="#3A3A3A" transform="translate(44,109)"/>
<path d="M0 0 C2.64 0 5.28 0 8 0 C7.67 0.99 7.34 1.98 7 3 C7.99 3.33 8.98 3.66 10 4 C8.35 4 6.7 4 5 4 C5 6.64 5 9.28 5 12 C5.99 12 6.98 12 8 12 C7 15 7 15 5 16 C4.59270772 18.32156597 4.25561323 20.6568787 4 23 C2.68 22.67 1.36 22.34 0 22 C0 14.74 0 7.48 0 0 Z " fill="#03BBA3" transform="translate(59,118)"/>
<path d="M0 0 C3.93775213 1.31258404 4.89639105 3.01641148 6.97021484 6.5 C8.90908443 11.20697596 8.51622109 15.99159542 8.3125 21 C8.27866211 22.59134766 8.27866211 22.59134766 8.24414062 24.21484375 C8.1856796 26.81051329 8.09601549 29.40544819 8 32 C13.28 32 18.56 32 24 32 C24 32.33 24 32.66 24 33 C21.18743719 33.02684312 18.37512759 33.04676188 15.5625 33.0625 C14.76005859 33.07087891 13.95761719 33.07925781 13.13085938 33.08789062 C11.08704779 33.0965143 9.04316098 33.0522815 7 33 C5.39693019 31.39693019 5.79729376 29.63208803 5.71875 27.4140625 C5.66267578 26.01800781 5.66267578 26.01800781 5.60546875 24.59375 C5.57066406 23.6140625 5.53585938 22.634375 5.5 21.625 C5.43108101 19.70037352 5.35832899 17.77587945 5.28125 15.8515625 C5.25095703 14.99385254 5.22066406 14.13614258 5.18945312 13.25244141 C5.07495932 10.83220799 5.07495932 10.83220799 4 8 C2.35 7.67 0.7 7.34 -1 7 C-1.625 5.1875 -1.625 5.1875 -2 3 C-1.34 2.01 -0.68 1.02 0 0 Z " fill="#DF6F48" transform="translate(163,109)"/>
<path d="M0 0 C2.31 0.33 4.62 0.66 7 1 C5.68925635 5.46182436 3.92933989 8.99618757 1.375 12.875 C0.42753906 14.32519531 0.42753906 14.32519531 -0.5390625 15.8046875 C-1.26222656 16.89136719 -1.26222656 16.89136719 -2 18 C-2.99 17.67 -3.98 17.34 -5 17 C-4.67 16.01 -4.34 15.02 -4 14 C-3.01 14 -2.02 14 -1 14 C-1 13.01 -1 12.02 -1 11 C-0.34 11 0.32 11 1 11 C0.67 10.01 0.34 9.02 0 8 C-2.49361571 9.20381448 -4.68143083 10.45428722 -7 12 C-5.44298069 7.32894208 -2.91552627 3.91294315 0 0 Z " fill="#EF7242" transform="translate(157,107)"/>
<path d="M0 0 C0.66 0.33 1.32 0.66 2 1 C2.32470459 5.13998349 2.4304413 7.33999001 0.125 10.875 C-2.75649244 13.75649244 -4.34601649 14.17000369 -8.3125 14.25 C-12.33331901 14.22405923 -14.75215963 13.51445706 -18 11 C-16 10 -16 10 -13.5625 10.5 C-10.89551669 11.23853737 -10.89551669 11.23853737 -8 10 C-7.67 10.66 -7.34 11.32 -7 12 C-5.68 12 -4.36 12 -3 12 C-3 11.01 -3 10.02 -3 9 C-2.01 9 -1.02 9 0 9 C-0.37125 8.443125 -0.7425 7.88625 -1.125 7.3125 C-2 5 -2 5 -1.125 2.25 C-0.75375 1.5075 -0.3825 0.765 0 0 Z " fill="#E7794D" transform="translate(136,128)"/>
<path d="M0 0 C-0.33 0.99 -0.66 1.98 -1 3 C-1.66 3 -2.32 3 -3 3 C-3 3.99 -3 4.98 -3 6 C-4.65 6 -6.3 6 -8 6 C-8.33 7.32 -8.66 8.64 -9 10 C-10.32 10 -11.64 10 -13 10 C-11.73649515 3.16220907 -7.03381838 -1.0048312 0 0 Z " fill="#282726" transform="translate(37,110)"/>
<path d="M0 0 C3.47000311 1.1566677 3.84701459 1.85726716 5.6875 4.875 C6.12449219 5.57367188 6.56148437 6.27234375 7.01171875 6.9921875 C8 9 8 9 8 12 C6.68 11.34 5.36 10.68 4 10 C4 9.34 4 8.68 4 8 C2.35 7.67 0.7 7.34 -1 7 C-1.625 5.1875 -1.625 5.1875 -2 3 C-1.34 2.01 -0.68 1.02 0 0 Z " fill="#D95C28" transform="translate(163,109)"/>
<path d="M0 0 C0.66 0 1.32 0 2 0 C2 1.32 2 2.64 2 4 C1.01 4 0.02 4 -1 4 C-1 5.32 -1 6.64 -1 8 C-1.99 8.495 -1.99 8.495 -3 9 C-3 10.32 -3 11.64 -3 13 C-3.99 12.67 -4.98 12.34 -6 12 C-6.125 5.25 -6.125 5.25 -5 3 C-3.35 3 -1.7 3 0 3 C0 2.01 0 1.02 0 0 Z " fill="#23322F" transform="translate(34,113)"/>
<path d="M0 0 C1.69140625 1.515625 1.69140625 1.515625 3 3 C2.07767578 2.98259766 2.07767578 2.98259766 1.13671875 2.96484375 C-0.07564453 2.95130859 -0.07564453 2.95130859 -1.3125 2.9375 C-2.11300781 2.92589844 -2.91351563 2.91429688 -3.73828125 2.90234375 C-6.16861334 2.90342145 -6.16861334 2.90342145 -9 4 C-10.18496548 8.89895217 -10.18496548 8.89895217 -8.5625 13.4375 C-8.046875 13.953125 -7.53125 14.46875 -7 15 C-10.875 13.125 -10.875 13.125 -12 12 C-12.58988764 5.74719101 -12.58988764 5.74719101 -10.125 2.625 C-6.61590835 -0.05842303 -4.41729376 -0.36059541 0 0 Z " fill="#E6784E" transform="translate(218,116)"/>
<path d="M0 0 C0.33 0 0.66 0 1 0 C1 3.3 1 6.6 1 10 C0.01 9.67 -0.98 9.34 -2 9 C-2 7.35 -2 5.7 -2 4 C-4.97 4 -7.94 4 -11 4 C-11 3.34 -11 2.68 -11 2 C-7.7 2 -4.4 2 -1 2 C-0.67 1.34 -0.34 0.68 0 0 Z " fill="#EF9C78" transform="translate(188,132)"/>
<path d="M0 0 C2.31 0.33 4.62 0.66 7 1 C7 2.32 7 3.64 7 5 C6.01 5.66 5.02 6.32 4 7 C2.68 6.34 1.36 5.68 0 5 C0 3.35 0 1.7 0 0 Z " fill="#FA6D34" transform="translate(118,133)"/>
<path d="M0 0 C0.99 0 1.98 0 3 0 C1.125 5.75 1.125 5.75 0 8 C-0.08342159 9.44848582 -0.10732861 10.90070869 -0.09765625 12.3515625 C-0.09443359 13.20234375 -0.09121094 14.053125 -0.08789062 14.9296875 C-0.07951172 15.81914063 -0.07113281 16.70859375 -0.0625 17.625 C-0.05798828 18.5221875 -0.05347656 19.419375 -0.04882812 20.34375 C-0.03702591 22.56256648 -0.02056155 24.78125018 0 27 C-0.33 27 -0.66 27 -1 27 C-1.22745015 23.62600624 -1.42851745 20.25092748 -1.625 16.875 C-1.68945312 15.92367187 -1.75390625 14.97234375 -1.8203125 13.9921875 C-2.10594477 8.85080672 -2.12666217 4.82151653 0 0 Z " fill="#E1744A" transform="translate(177,108)"/>
<path d="M0 0 C0.66 0.33 1.32 0.66 2 1 C1.38125 1.53625 0.7625 2.0725 0.125 2.625 C-2.29405154 5.32864584 -2.90835547 7.57951381 -4 11 C-5.625 12.875 -5.625 12.875 -7 14 C-6.34 12.35 -5.68 10.7 -5 9 C-5.66 8.67 -6.32 8.34 -7 8 C-6.875 6.25 -6.875 6.25 -6 4 C-2.9375 1.75 -2.9375 1.75 0 0 Z " fill="#E4774A" transform="translate(177,98)"/>
<path d="M0 0 C1.98 0 3.96 0 6 0 C6.66 1.98 7.32 3.96 8 6 C6 8 6 8 2.875 8.125 C1.451875 8.063125 1.451875 8.063125 0 8 C0 7.34 0 6.68 0 6 C1.65 6 3.3 6 5 6 C4.80528889 4.05000871 4.80528889 4.05000871 4 2 C2.0162233 0.71563266 2.0162233 0.71563266 0 0 Z " fill="#34BDAA" transform="translate(64,122)"/>
<path d="M0 0 C1.5 1.3125 1.5 1.3125 3 3 C3 6 3 6 1.375 7.75 C-1.77514641 9.40797179 -3.62025695 8.84493576 -7 8 C-7 7.01 -7 6.02 -7 5 C-6.34 5.33 -5.68 5.66 -5 6 C-2.99199544 5.71887936 -0.98985949 5.38932033 1 5 C0.67 3.35 0.34 1.7 0 0 Z " fill="#E47D53" transform="translate(221,119)"/>
<path d="M0 0 C0.33 4.29 0.66 8.58 1 13 C0.01 13.495 0.01 13.495 -1 14 C-1.99 13.34 -2.98 12.68 -4 12 C-3.01 12 -2.02 12 -1 12 C-1 8.7 -1 5.4 -1 2 C-2.65 2.33 -4.3 2.66 -6 3 C-3.375 0 -3.375 0 0 0 Z " fill="#DF7D56" transform="translate(185,95)"/>
<path d="M0 0 C0 0.66 0 1.32 0 2 C0.99 2.33 1.98 2.66 3 3 C-0.93670488 4.31223496 -3.12488144 3.24296256 -7 2 C-7.33 3.32 -7.66 4.64 -8 6 C-8.33 4.35 -8.66 2.7 -9 1 C-5.8035914 -0.06546953 -3.34252724 -0.07427838 0 0 Z " fill="#E3815A" transform="translate(125,131)"/>
<path d="M0 0 C1.65 0 3.3 0 5 0 C4.67 1.65 4.34 3.3 4 5 C3.34 5 2.68 5 2 5 C2 4.34 2 3.68 2 3 C1.34 3 0.68 3 0 3 C0 2.01 0 1.02 0 0 Z " fill="#354A48" transform="translate(36,113)"/>
<path d="M0 0 C1.093125 0.185625 2.18625 0.37125 3.3125 0.5625 C6.93624133 1.2578068 6.93624133 1.2578068 10 0 C10.33 0.99 10.66 1.98 11 3 C3.49230769 3.36923077 3.49230769 3.36923077 1 1.5 C0.67 1.005 0.34 0.51 0 0 Z " fill="#F07542" transform="translate(118,138)"/>
<path d="M0 0 C0.66 0 1.32 0 2 0 C2 0.99 2 1.98 2 3 C3.32 2.34 4.64 1.68 6 1 C6 1.99 6 2.98 6 4 C3.03 3.67 0.06 3.34 -3 3 C-2.01 2.01 -1.02 1.02 0 0 Z " fill="#E78660" transform="translate(211,131)"/>
<path d="M0 0 C2.4375 0.75 2.4375 0.75 5 2 C5.8125 4.125 5.8125 4.125 6 6 C4.68 5.34 3.36 4.68 2 4 C2 3.34 2 2.68 2 2 C1.34 2 0.68 2 0 2 C0 1.34 0 0.68 0 0 Z " fill="#E35922" transform="translate(165,115)"/>
<path d="M0 0 C0.33 0.99 0.66 1.98 1 3 C-0.8125 5.6875 -0.8125 5.6875 -3 8 C-3.66 8 -4.32 8 -5 8 C-5.33 7.01 -5.66 6.02 -6 5 C-5.38125 4.731875 -4.7625 4.46375 -4.125 4.1875 C-1.7004767 3.04443152 -1.7004767 3.04443152 0 0 Z " fill="#F16E3D" transform="translate(173,108)"/>
<path d="M0 0 C0.66 0 1.32 0 2 0 C2.33 2.31 2.66 4.62 3 7 C2.01 6.67 1.02 6.34 0 6 C0 4.02 0 2.04 0 0 Z " fill="#897854" transform="translate(28,119)"/>
<path d="M0 0 C0.66 0 1.32 0 2 0 C1.67 1.65 1.34 3.3 1 5 C-0.65 5 -2.3 5 -4 5 C-2.71937515 3.2925002 -1.38232443 1.62626404 0 0 Z " fill="#1B1B1A" transform="translate(33,111)"/>
</svg>
