<?xml version="1.0" encoding="UTF-8"?>
<svg version="1.1" xmlns="http://www.w3.org/2000/svg" width="225" height="225">
<path d="M0 0 C0.80978806 -0.0033284 1.61957611 -0.0066568 2.4539032 -0.01008606 C4.17637565 -0.01515844 5.89885797 -0.01749429 7.62133789 -0.01733398 C10.21322797 -0.0194909 12.80467136 -0.03755949 15.39648438 -0.05664062 C31.7216913 -0.1139676 46.421759 0.53532755 58.94921875 12.16796875 C59.59890625 12.74546875 60.24859375 13.32296875 60.91796875 13.91796875 C63.35973591 16.62269545 64.60411857 19.27657697 66.07421875 22.60546875 C66.57179688 23.71792969 67.069375 24.83039063 67.58203125 25.9765625 C68.03320312 27.02972656 68.484375 28.08289063 68.94921875 29.16796875 C69.33464844 30.03164062 69.72007812 30.8953125 70.1171875 31.78515625 C70.99503645 34.29918375 71.18623521 36.20408743 71.13671875 38.85546875 C71.13027344 39.62246094 71.12382812 40.38945313 71.1171875 41.1796875 C70.94921875 43.16796875 70.94921875 43.16796875 69.94921875 45.16796875 C70.93921875 45.16796875 71.92921875 45.16796875 72.94921875 45.16796875 C73.53703125 46.46734375 73.53703125 46.46734375 74.13671875 47.79296875 C77.2656863 53.61932211 80.32483656 57.68741189 86.6796875 59.77734375 C90.82428618 60.4906998 94.83536349 59.86766135 98.94921875 59.16796875 C97.5928338 56.12545843 96.07641224 54.06529043 93.69140625 51.75 C93.06621094 51.13576172 92.44101563 50.52152344 91.796875 49.88867188 C91.14589844 49.25896484 90.49492187 48.62925781 89.82421875 47.98046875 C88.52782427 46.71832344 87.23343393 45.45411513 85.94140625 44.1875 C85.3676123 43.63167236 84.79381836 43.07584473 84.20263672 42.50317383 C82.94921875 41.16796875 82.94921875 41.16796875 82.94921875 40.16796875 C86.17790621 40.02212811 89.4057424 39.93372769 92.63671875 39.85546875 C93.54873047 39.81357422 94.46074219 39.77167969 95.40039062 39.72851562 C102.22824865 39.60437275 102.22824865 39.60437275 105.8125 42.40625 C106.51761719 43.31761719 107.22273437 44.22898438 107.94921875 45.16796875 C108.70203125 45.92078125 109.45484375 46.67359375 110.23046875 47.44921875 C117.58984375 54.80859375 117.58984375 54.80859375 124.94921875 62.16796875 C122.53214563 69.4827953 116.29989997 74.19280828 109.57421875 77.60546875 C99.97589946 81.74267534 85.85534068 82.27969735 76.01171875 78.41796875 C73.8203125 77.30859375 73.8203125 77.30859375 71.94921875 76.16796875 C70.27859375 75.17796875 70.27859375 75.17796875 68.57421875 74.16796875 C66.11489126 72.29419542 63.93698584 70.53799874 61.94921875 68.16796875 C61.94921875 67.17796875 61.94921875 66.18796875 61.94921875 65.16796875 C61.39234375 65.77125 60.83546875 66.37453125 60.26171875 66.99609375 C55.53349239 71.94795243 51.43907782 75.86098114 44.94921875 78.16796875 C44.15902344 78.46445313 43.36882812 78.7609375 42.5546875 79.06640625 C35.66232839 81.21595459 28.6829897 81.62803266 21.51171875 81.85546875 C20.0719165 81.93909668 20.0719165 81.93909668 18.60302734 82.02441406 C11.948977 82.09700796 11.948977 82.09700796 9.33740234 79.67016602 C7.9728643 77.56446559 6.95193476 75.46744468 5.94921875 73.16796875 C5.57482666 72.41104736 5.20043457 71.65412598 4.81469727 70.87426758 C3.65019221 68.51079585 2.54398513 66.12696264 1.44921875 63.73046875 C-1.1713088 58.021793 -3.9095486 52.50035602 -7.11523438 47.09350586 C-8.05078125 45.16796875 -8.05078125 45.16796875 -8.05078125 42.16796875 C-8.71078125 42.16796875 -9.37078125 42.16796875 -10.05078125 42.16796875 C-10.13199219 42.98523438 -10.21320312 43.8025 -10.296875 44.64453125 C-11.23791812 49.04256696 -13.03885247 52.58041567 -15.11328125 56.54296875 C-15.49033203 57.27902344 -15.86738281 58.01507813 -16.25585938 58.7734375 C-17.18022489 60.57536521 -18.11450739 62.37219974 -19.05078125 64.16796875 C-18.29152344 64.1215625 -17.53226563 64.07515625 -16.75 64.02734375 C-15.75613281 63.99125 -14.76226562 63.95515625 -13.73828125 63.91796875 C-12.75214844 63.8715625 -11.76601563 63.82515625 -10.75 63.77734375 C-8.05078125 64.16796875 -8.05078125 64.16796875 -6.36328125 65.83203125 C-4.89717994 68.44134251 -3.58900405 71.06177861 -2.36328125 73.79296875 C-1.92628906 74.75460938 -1.48929688 75.71625 -1.0390625 76.70703125 C-0.05078125 79.16796875 -0.05078125 79.16796875 -0.05078125 81.16796875 C-16.22078125 81.16796875 -32.39078125 81.16796875 -49.05078125 81.16796875 C-44.55983699 71.06334417 -44.55983699 71.06334417 -42.421875 66.84765625 C-41.94991699 65.91203857 -41.47795898 64.9764209 -40.99169922 64.01245117 C-40.49557129 63.03252197 -39.99944336 62.05259277 -39.48828125 61.04296875 C-35.36590851 52.85964725 -31.34274331 44.63897245 -27.42578125 36.35546875 C-23.56016386 28.18788352 -19.50707194 20.14804694 -15.22216797 12.19213867 C-13.62547165 9.21931169 -12.124053 6.35623988 -10.8984375 3.20703125 C-9.04464094 -1.25233189 -4.14824171 0.00591753 0 0 Z M-1.05078125 15.16796875 C0.3816364 19.98475141 2.47342348 24.22440154 4.88671875 28.60546875 C9.70020408 37.50762503 14.04709443 46.61030495 18.37109375 55.7578125 C20.82094831 60.93336401 23.36605725 66.0578316 25.94921875 71.16796875 C26.60921875 71.16796875 27.26921875 71.16796875 27.94921875 71.16796875 C27.29336686 67.55804496 27.29336686 67.55804496 25.94921875 64.16796875 C27.08359375 64.22984375 28.21796875 64.29171875 29.38671875 64.35546875 C36.78649305 64.31624733 43.0577399 62.00355561 48.44140625 56.8828125 C53.42673984 51.21296419 54.68434886 45.70338968 54.390625 38.19921875 C53.39406033 31.35555341 50.49823428 26.04601101 45.13671875 21.66796875 C37.13486178 15.79880287 26.57449087 16.77970121 17.13671875 16.60546875 C15.01000937 16.56139811 12.88344221 16.5146908 10.75691223 16.46266174 C8.84092193 16.41644417 6.92473125 16.37876632 5.00854492 16.34155273 C1.94921875 16.16796875 1.94921875 16.16796875 -1.05078125 15.16796875 Z M69.94921875 46.16796875 C69.61148438 47.04839844 69.27375 47.92882812 68.92578125 48.8359375 C68.47976562 49.99738281 68.03375 51.15882812 67.57421875 52.35546875 C67.13335937 53.50402344 66.6925 54.65257812 66.23828125 55.8359375 C65.16069732 58.62132869 64.06557445 61.39794596 62.94921875 64.16796875 C63.60921875 64.16796875 64.26921875 64.16796875 64.94921875 64.16796875 C68.31483466 58.10737625 70.56252416 53.12847128 70.94921875 46.16796875 C70.61921875 46.16796875 70.28921875 46.16796875 69.94921875 46.16796875 Z M27.94921875 71.16796875 C28.94921875 73.16796875 28.94921875 73.16796875 28.94921875 73.16796875 Z " fill="#0729A8" transform="translate(71.05078125,63.83203125)"/>
<path d="M0 0 C1.26092972 0.00212242 1.26092972 0.00212242 2.54733276 0.00428772 C5.23732025 0.00989388 7.92722509 0.02244739 10.6171875 0.03515625 C12.43880088 0.04017046 14.26041557 0.0447335 16.08203125 0.04882812 C20.55211527 0.05986531 25.02213736 0.07713405 29.4921875 0.09765625 C29.4921875 0.42765625 29.4921875 0.75765625 29.4921875 1.09765625 C17.9421875 1.09765625 6.3921875 1.09765625 -5.5078125 1.09765625 C-3.5278125 5.71765625 -1.5478125 10.33765625 0.4921875 15.09765625 C-0.1678125 15.09765625 -0.8278125 15.09765625 -1.5078125 15.09765625 C-1.023125 16.06703125 -0.5384375 17.03640625 -0.0390625 18.03515625 C0.44022705 18.9938562 0.44022705 18.9938562 0.92919922 19.97192383 C1.64931748 21.41199495 2.36970323 22.85193234 3.09033203 24.29174805 C4.88401991 27.87640728 6.67467695 31.46243999 8.453125 35.0546875 C9.09082084 36.34000504 9.72884155 37.62516146 10.3671875 38.91015625 C10.68631104 39.55315674 11.00543457 40.19615723 11.33422852 40.85864258 C13.23031932 44.65314384 15.18206696 48.41229546 17.18359375 52.15234375 C17.63943848 53.00594482 18.0952832 53.8595459 18.56494141 54.73901367 C19.45587798 56.40119212 20.3524454 58.06036812 21.25537109 59.71606445 C23.27643184 63.4856429 25.01574418 66.77501591 25.4921875 71.09765625 C26.0903125 71.15953125 26.6884375 71.22140625 27.3046875 71.28515625 C30.39558279 72.43320307 31.0802219 74.20312677 32.4921875 77.09765625 C32.4921875 77.75765625 32.4921875 78.41765625 32.4921875 79.09765625 C34.1421875 79.09765625 35.7921875 79.09765625 37.4921875 79.09765625 C37.4921875 79.42765625 37.4921875 79.75765625 37.4921875 80.09765625 C32.14949262 81.26517391 26.94563346 81.50668886 21.4921875 81.66015625 C20.50734375 81.72267578 19.5225 81.78519531 18.5078125 81.84960938 C11.49420352 82.0059939 11.49420352 82.0059939 8.84960938 79.60864258 C7.4873178 77.49966994 6.4812105 75.40465782 5.4921875 73.09765625 C5.11835937 72.34057373 4.74453125 71.58349121 4.359375 70.8034668 C3.19318137 68.44058595 2.08704201 66.05684306 0.9921875 63.66015625 C-1.62834005 57.9514805 -4.36657985 52.43004352 -7.57226562 47.02319336 C-8.5078125 45.09765625 -8.5078125 45.09765625 -8.5078125 42.09765625 C-9.1678125 42.09765625 -9.8278125 42.09765625 -10.5078125 42.09765625 C-10.58902344 42.91492188 -10.67023437 43.7321875 -10.75390625 44.57421875 C-11.69494937 48.97225446 -13.49588372 52.51010317 -15.5703125 56.47265625 C-15.94736328 57.20871094 -16.32441406 57.94476563 -16.71289062 58.703125 C-17.63725614 60.50505271 -18.57153864 62.30188724 -19.5078125 64.09765625 C-18.74855469 64.05125 -17.98929688 64.00484375 -17.20703125 63.95703125 C-16.21316406 63.9209375 -15.21929687 63.88484375 -14.1953125 63.84765625 C-13.20917969 63.80125 -12.22304688 63.75484375 -11.20703125 63.70703125 C-8.5078125 64.09765625 -8.5078125 64.09765625 -6.8203125 65.76171875 C-5.35421119 68.37103001 -4.0460353 70.99146611 -2.8203125 73.72265625 C-2.38332031 74.68429688 -1.94632813 75.6459375 -1.49609375 76.63671875 C-0.5078125 79.09765625 -0.5078125 79.09765625 -0.5078125 81.09765625 C-16.6778125 81.09765625 -32.8478125 81.09765625 -49.5078125 81.09765625 C-45.01686824 70.99303167 -45.01686824 70.99303167 -42.87890625 66.77734375 C-42.40694824 65.84172607 -41.93499023 64.9061084 -41.44873047 63.94213867 C-40.95260254 62.96220947 -40.45647461 61.98228027 -39.9453125 60.97265625 C-35.82293976 52.78933475 -31.79977456 44.56865995 -27.8828125 36.28515625 C-24.01719511 28.11757102 -19.96410319 20.07773444 -15.67919922 12.12182617 C-14.0825029 9.14899919 -12.58108425 6.28592738 -11.35546875 3.13671875 C-9.45271694 -1.44040774 -4.23519521 -0.02662877 0 0 Z " fill="#F70552" transform="translate(71.5078125,63.90234375)"/>
<path d="M0 0 C2.37119929 0.01868067 4.74201482 0.02050593 7.11328125 0.02026367 C8.62890965 0.02516594 10.14453542 0.03098852 11.66015625 0.0378418 C12.7177565 0.03951103 12.7177565 0.03951103 13.79672241 0.04121399 C18.71676657 0.08958446 18.71676657 0.08958446 20.94921875 1.20581055 C22.10659993 4.67795409 22.09527018 7.4216956 22.1171875 11.0847168 C22.12128632 11.76513031 22.12538513 12.44554382 22.12960815 13.14657593 C22.13917795 15.35387192 22.1391364 17.56099681 22.13671875 19.76831055 C22.13711151 20.51380157 22.13750427 21.2592926 22.13790894 22.02737427 C22.11961266 50.86502272 22.11961266 50.86502272 18.94921875 57.20581055 C15.68689194 56.62484824 14.06160944 55.68808713 11.75 53.3347168 C11.18087891 52.76043945 10.61175781 52.18616211 10.02539062 51.59448242 C9.44337891 50.9918457 8.86136719 50.38920898 8.26171875 49.76831055 C7.66810547 49.16954102 7.07449219 48.57077148 6.46289062 47.95385742 C2.79692534 44.22101022 0.88308863 42.21730793 0.6328125 36.85424805 C0.59091797 36.0034668 0.54902344 35.15268555 0.50585938 34.27612305 C0.46654297 33.38666992 0.42722656 32.4972168 0.38671875 31.58081055 C0.34353516 30.68362305 0.30035156 29.78643555 0.25585938 28.86206055 C0.14965014 26.64346772 0.04760681 24.42476175 -0.05078125 22.20581055 C-1.96890625 22.2193457 -1.96890625 22.2193457 -3.92578125 22.2331543 C-19.34306538 22.0659716 -19.34306538 22.0659716 -24.05078125 17.83081055 C-25.09032592 16.65632499 -26.09499876 15.44941389 -27.05078125 14.20581055 C-27.60765625 13.67729492 -28.16453125 13.1487793 -28.73828125 12.60424805 C-30.05078125 11.20581055 -30.05078125 11.20581055 -30.05078125 9.20581055 C-30.69015625 8.93768555 -31.32953125 8.66956055 -31.98828125 8.39331055 C-34.05078125 7.20581055 -34.05078125 7.20581055 -35.05078125 4.20581055 C-26.11590624 -1.7507728 -10.4803458 -0.08563101 0 0 Z " fill="#F9024F" transform="translate(181.05078125,63.794189453125)"/>
<path d="M0 0 C4.62 0 9.24 0 14 0 C15.17154293 2.28929053 16.33738074 4.58118362 17.5 6.875 C17.83386719 7.52597656 18.16773438 8.17695313 18.51171875 8.84765625 C21 13.7734375 21 13.7734375 21 16 C4.83 16 -11.34 16 -28 16 C-27.34 15.01 -26.68 14.02 -26 13 C-26 13.66 -26 14.32 -26 15 C-16.595 14.505 -16.595 14.505 -7 14 C-4.69 9.38 -2.38 4.76 0 0 Z " fill="#0824A3" transform="translate(50,129)"/>
<path d="M0 0 C2.45616143 1.08113089 2.68071922 2.43816307 3.828125 4.8046875 C4.405625 5.0934375 4.983125 5.3821875 5.578125 5.6796875 C9.00208775 7.39166887 11.18963419 10.04626529 13.828125 12.8046875 C12.62056829 16.42735764 11.62072183 16.836472 8.453125 18.8046875 C5.58052817 20.60123014 3.13046402 22.30924908 0.828125 24.8046875 C0.60898438 24.1034375 0.38984375 23.4021875 0.1640625 22.6796875 C-2.02953607 16.11672591 -4.65932165 11.05429123 -9.171875 5.8046875 C-8.10294282 4.76878412 -7.01609012 3.75134808 -5.921875 2.7421875 C-5.31859375 2.17371094 -4.7153125 1.60523437 -4.09375 1.01953125 C-2.171875 -0.1953125 -2.171875 -0.1953125 0 0 Z " fill="#0727AB" transform="translate(141.171875,71.1953125)"/>
<path d="M0 0 C2.37119929 0.01868067 4.74201482 0.02050593 7.11328125 0.02026367 C8.62890965 0.02516594 10.14453542 0.03098852 11.66015625 0.0378418 C12.7177565 0.03951103 12.7177565 0.03951103 13.79672241 0.04121399 C18.71676657 0.08958446 18.71676657 0.08958446 20.94921875 1.20581055 C22.12832585 4.74313184 22.07876854 7.56288362 22.08203125 11.2956543 C22.08298798 11.99541885 22.0839447 12.69518341 22.08493042 13.41615295 C22.085611 14.90145965 22.0837652 16.38676933 22.07958984 17.87207031 C22.07431211 20.10383139 22.07950094 22.33538446 22.0859375 24.56713867 C22.0893954 32.82979392 21.8199798 40.97920133 20.94921875 49.20581055 C20.61921875 49.20581055 20.28921875 49.20581055 19.94921875 49.20581055 C19.94921875 33.69581055 19.94921875 18.18581055 19.94921875 2.20581055 C8.99734375 2.39143555 8.99734375 2.39143555 -2.17578125 2.58081055 C-4.47047363 2.61480957 -6.76516602 2.64880859 -9.12939453 2.68383789 C-10.95997543 2.71906263 -12.79054308 2.75498596 -14.62109375 2.79174805 C-15.56202881 2.80310791 -16.50296387 2.81446777 -17.47241211 2.82617188 C-22.33308349 2.93298568 -26.54656821 3.15213756 -31.05078125 5.20581055 C-31.38078125 5.86581055 -31.71078125 6.52581055 -32.05078125 7.20581055 C-31.06078125 7.53581055 -30.07078125 7.86581055 -29.05078125 8.20581055 C-29.05078125 8.86581055 -29.05078125 9.52581055 -29.05078125 10.20581055 C-28.06078125 10.53581055 -27.07078125 10.86581055 -26.05078125 11.20581055 C-26.38078125 12.19581055 -26.71078125 13.18581055 -27.05078125 14.20581055 C-28.55078125 12.83081055 -28.55078125 12.83081055 -30.05078125 11.20581055 C-30.05078125 10.54581055 -30.05078125 9.88581055 -30.05078125 9.20581055 C-30.69015625 8.93768555 -31.32953125 8.66956055 -31.98828125 8.39331055 C-34.05078125 7.20581055 -34.05078125 7.20581055 -35.05078125 4.20581055 C-26.11590624 -1.7507728 -10.4803458 -0.08563101 0 0 Z " fill="#EAA1BA" transform="translate(181.05078125,63.794189453125)"/>
<path d="M0 0 C2.86562595 2.47906057 4.1617794 5.12161059 5.6875 8.5625 C6.12449219 9.53316406 6.56148437 10.50382813 7.01171875 11.50390625 C8 14 8 14 8 16 C-8.17 16 -24.34 16 -41 16 C-40.34 15.01 -39.68 14.02 -39 13 C-39 13.66 -39 14.32 -39 15 C-29.595 14.505 -29.595 14.505 -20 14 C-18.35 10.7 -16.7 7.4 -15 4 C-14.67 4.66 -14.34 5.32 -14 6 C-15.32 8.64 -16.64 11.28 -18 14 C-11.4 14 -4.8 14 2 14 C1.505 8.555 1.505 8.555 1 3 C-0.65 3 -2.3 3 -4 3 C-2.68 2.01 -1.36 1.02 0 0 Z " fill="#5F489E" transform="translate(63,129)"/>
<path d="M0 0 C2.97 0.495 2.97 0.495 6 1 C6.33 1.99 6.66 2.98 7 4 C14.26 4.33 21.52 4.66 29 5 C30.20029908 7.40059817 30.11459743 8.89360649 30.09765625 11.5703125 C30.09443359 12.46621094 30.09121094 13.36210938 30.08789062 14.28515625 C30.07951172 15.22230469 30.07113281 16.15945312 30.0625 17.125 C30.05798828 18.06988281 30.05347656 19.01476562 30.04882812 19.98828125 C30.03702357 22.32558387 30.02055759 24.66276061 30 27 C30.66 27.33 31.32 27.66 32 28 C31.67 28.99 31.34 29.98 31 31 C28.56988304 29.26975672 27.17329662 27.86328869 26.57617188 24.88867188 C26.38186183 22.3380968 26.29155615 19.80759224 26.25 17.25 C26.22035156 16.36183594 26.19070312 15.47367188 26.16015625 14.55859375 C26.08963082 12.37230551 26.03685363 10.18707232 26 8 C24.70964844 7.99742188 23.41929687 7.99484375 22.08984375 7.9921875 C20.37236189 7.95464691 18.65491464 7.91549909 16.9375 7.875 C15.66616211 7.87886719 15.66616211 7.87886719 14.36914062 7.8828125 C8.50557353 7.70169846 5.42836078 6.4542032 1.18188477 2.37939453 C0 1 0 1 0 0 Z " fill="#CB1F55" transform="translate(155,78)"/>
<path d="M0 0 C2 2 2 2 2.23046875 4.09375 C2.20919922 5.28484375 2.20919922 5.28484375 2.1875 6.5 C2.17783203 7.69109375 2.17783203 7.69109375 2.16796875 8.90625 C2 11 2 11 1 13 C1.99 13 2.98 13 4 13 C7 18.625 7 18.625 7 22 C6.67 21.67 6.34 21.34 6 21 C4.10786631 23.38573379 2.97608217 25.07175348 2 28 C1.34 28 0.68 28 0 28 C-2.60018816 31.90028225 -2.15085514 35.47434569 -2 40 C-3.65 38.68 -5.3 37.36 -7 36 C-6.67 34.68 -6.34 33.36 -6 32 C-5.34 32 -4.68 32 -4 32 C-3.30580437 30.34461042 -2.64896236 28.67363977 -2 27 C-1.71253906 26.28714844 -1.42507812 25.57429688 -1.12890625 24.83984375 C0.7585901 20.23880744 0.7585901 20.23880744 0.1875 15.5 C-0.204375 14.675 -0.59625 13.85 -1 13 C-1.37305973 8.51517329 -1.22980217 4.33874205 0 0 Z " fill="#223487" transform="translate(140,96)"/>
<path d="M0 0 C1.32 0 2.64 0 4 0 C5.13497242 3.05023838 6.01195981 5.47376857 5.9375 8.75 C5.958125 9.4925 5.97875 10.235 6 11 C6.99 11.66 7.98 12.32 9 13 C7.63016497 16.16115776 7.0109362 16.9927092 4 19 C4.33 17.35 4.66 15.7 5 14 C4.360625 14.165 3.72125 14.33 3.0625 14.5 C0.71205277 15.06980539 -0.47758742 15 -3 15 C-4.75 13.1875 -4.75 13.1875 -6 11 C-5.67 10.01 -5.34 9.02 -5 8 C-4.01 8 -3.02 8 -2 8 C-2 7.34 -2 6.68 -2 6 C-1.34 5.34 -0.68 4.68 0 4 C0 2.68 0 1.36 0 0 Z " fill="#0324A4" transform="translate(123,115)"/>
<path d="M0 0 C3.22868746 -0.14584064 6.45652365 -0.23424106 9.6875 -0.3125 C10.59951172 -0.35439453 11.51152344 -0.39628906 12.45117188 -0.43945312 C19.27045365 -0.56344007 19.27045365 -0.56344007 23.01953125 2.33203125 C24.39560242 4.18579182 25.71937514 6.0790627 27 8 C25 8 23 8 21 8 C20.67 8.99 20.34 9.98 20 11 C18.84772177 10.23883449 17.7033614 9.46567307 16.5625 8.6875 C15.92441406 8.25824219 15.28632813 7.82898438 14.62890625 7.38671875 C13 6 13 6 12 3 C13.32 2.34 14.64 1.68 16 1 C10.555 1.495 10.555 1.495 5 2 C5.99 3.485 5.99 3.485 7 5 C6.01 5 5.02 5 4 5 C1.8125 2.5 1.8125 2.5 0 0 Z " fill="#0627A8" transform="translate(154,104)"/>
<path d="M0 0 C0.99 0 1.98 0 3 0 C3 0.66 3 1.32 3 2 C3.639375 2.268125 4.27875 2.53625 4.9375 2.8125 C7 4 7 4 8 7 C9.65 6.34 11.3 5.68 13 5 C14.87055949 8.15656914 15.18682784 10.35685706 15 14 C15 14.99 15 15.98 15 17 C9.72 17 4.44 17 -1 17 C-1.33 16.34 -1.66 15.68 -2 15 C1.96 14.34 5.92 13.68 10 13 C8.16045586 9.32091172 6.77155777 7.57928367 3.875 4.8125 C2.56722665 3.55824763 1.270906 2.29159517 0 1 C0 0.67 0 0.34 0 0 Z " fill="#0C2AA2" transform="translate(160,110)"/>
<path d="M0 0 C0.33 0.66 0.66 1.32 1 2 C1.928125 2.1546875 1.928125 2.1546875 2.875 2.3125 C5 3 5 3 6.75 5.4375 C8 8 8 8 8 10 C9.65 10 11.3 10 13 10 C13 10.33 13 10.66 13 11 C7.58333991 12.21465605 2.34225762 12.22144089 -3.1875 12.25 C-4.7024707 12.2809375 -4.7024707 12.2809375 -6.24804688 12.3125 C-7.21162109 12.31765625 -8.17519531 12.3228125 -9.16796875 12.328125 C-10.04735107 12.3374707 -10.9267334 12.34681641 -11.83276367 12.35644531 C-12.54795166 12.23881836 -13.26313965 12.12119141 -14 12 C-14.66 11.01 -15.32 10.02 -16 9 C-9.73 9.33 -3.46 9.66 3 10 C2.01 8.02 1.02 6.04 0 4 C0 2.68 0 1.36 0 0 Z " fill="#E03168" transform="translate(96,133)"/>
<path d="M0 0 C1.06504833 3.24691817 0.88693983 5.28636599 0 8.5625 C-0.87357505 11.80018754 -1.09818969 12.70543092 0 16 C-0.99 16 -1.98 16 -3 16 C-3.99 17.98 -4.98 19.96 -6 22 C-6.66 22 -7.32 22 -8 22 C-8 23.65 -8 25.3 -8 27 C-8.99 27 -9.98 27 -11 27 C-11 27.66 -11 28.32 -11 29 C-11.66 29 -12.32 29 -13 29 C-11.50878972 24.04732752 -9.42208776 19.6388014 -7.0625 15.0625 C-4.52010778 10.10507101 -2.1400969 5.14562484 0 0 Z " fill="#D5265D" transform="translate(47,93)"/>
<path d="M0 0 C1.26092972 0.00212242 1.26092972 0.00212242 2.54733276 0.00428772 C5.23732025 0.00989388 7.92722509 0.02244739 10.6171875 0.03515625 C12.43880088 0.04017046 14.26041557 0.0447335 16.08203125 0.04882812 C20.55211527 0.05986531 25.02213736 0.07713405 29.4921875 0.09765625 C29.4921875 0.42765625 29.4921875 0.75765625 29.4921875 1.09765625 C17.9421875 1.09765625 6.3921875 1.09765625 -5.5078125 1.09765625 C-3.5278125 5.71765625 -1.5478125 10.33765625 0.4921875 15.09765625 C-0.4978125 15.42765625 -1.4878125 15.75765625 -2.5078125 16.09765625 C-3.6540098 13.97285185 -4.79978542 11.84782194 -5.9453125 9.72265625 C-6.27080078 9.119375 -6.59628906 8.51609375 -6.93164062 7.89453125 C-9.39453125 3.32421875 -9.39453125 3.32421875 -10.5078125 1.09765625 C-7.22889325 -0.54180338 -3.60167716 -0.02264553 0 0 Z " fill="#FBF9FA" transform="translate(71.5078125,63.90234375)"/>
<path d="M0 0 C2.33300123 1.28717309 2.66738045 2.63819092 3.8125 5 C4.39 5.28875 4.9675 5.5775 5.5625 5.875 C8.98646275 7.58698137 11.17400919 10.24157779 13.8125 13 C13.4825 13.99 13.1525 14.98 12.8125 16 C10.25 17.1875 10.25 17.1875 7.8125 18 C6.71815975 15.44653942 5.84121402 13.19621248 5.4375 10.4375 C4.64603711 7.35079472 3.10249727 6.14225551 0.8125 4 C0.8125 3.34 0.8125 2.68 0.8125 2 C-0.13625 2.515625 -1.085 3.03125 -2.0625 3.5625 C-3.09375 4.036875 -4.125 4.51125 -5.1875 5 C-5.8475 4.67 -6.5075 4.34 -7.1875 4 C-2.82386364 0 -2.82386364 0 0 0 Z " fill="#2237A7" transform="translate(141.1875,71)"/>
<path d="M0 0 C0.33 0.66 0.66 1.32 1 2 C0.67 2.66 0.34 3.32 0 4 C-2.3140622 4.73075648 -4.64828869 5.40138258 -7 6 C-7.77321882 8.98241547 -8.41196203 11.97580475 -9 15 C-12.55007718 11.0949151 -13.81819916 8.02265357 -15 3 C-13.75283203 2.80083984 -13.75283203 2.80083984 -12.48046875 2.59765625 C-11.39378906 2.42105469 -10.30710937 2.24445313 -9.1875 2.0625 C-8.10855469 1.88847656 -7.02960938 1.71445313 -5.91796875 1.53515625 C-2.95066644 1.06128079 -2.95066644 1.06128079 0 0 Z " fill="#1E3592" transform="translate(112,125)"/>
<path d="M0 0 C3.44206281 3.97338794 5.76751214 8.06751998 8.0625 12.75 C8.41248047 13.45576172 8.76246094 14.16152344 9.12304688 14.88867188 C11.52928106 19.82349114 13.48913641 24.71197744 15 30 C14.01 29.67 13.02 29.34 12 29 C10.2470538 25.42668659 8.78230674 21.91153372 8 18 C7.34 18 6.68 18 6 18 C6 16.35 6 14.7 6 13 C5.34 13 4.68 13 4 13 C3.67 12.01 3.34 11.02 3 10 C2.484375 9.5875 1.96875 9.175 1.4375 8.75 C-0.8039884 6.02123151 -0.1923317 3.39786009 0 0 Z " fill="#DB4175" transform="translate(77,95)"/>
<path d="M0 0 C3.41361802 1.1993793 5.56488996 2.33297472 8 5 C8.66 5.33 9.32 5.66 10 6 C10.33 5.34 10.66 4.68 11 4 C12.31328657 2.64691687 13.64499081 1.31129922 15 0 C15.02698189 1.62490954 15.04638757 3.24994633 15.0625 4.875 C15.07410156 5.77992187 15.08570313 6.68484375 15.09765625 7.6171875 C15 10 15 10 14 12 C9.70398876 11.51820435 7.66910061 9.00445443 4.75 6 C3.85796875 5.0925 2.9659375 4.185 2.046875 3.25 C0 1 0 1 0 0 Z " fill="#F12B6D" transform="translate(186,109)"/>
<path d="M0 0 C0 0.99 0 1.98 0 3 C1.35476998 5.53382268 1.35476998 5.53382268 3.1875 8.125 C3.77917969 9.01445313 4.37085938 9.90390625 4.98046875 10.8203125 C7.31331938 13.33816676 8.63792154 13.70966507 12 14 C9.525 17.465 9.525 17.465 7 21 C4.80771745 18.80771745 4.5426318 17.79147853 3.75 14.875 C2.15187067 9.76595442 -0.58130628 6.06039028 -4 2 C-2.68 1.34 -1.36 0.68 0 0 Z " fill="#16288A" transform="translate(136,75)"/>
<path d="M0 0 C2.35965314 1.70341824 3.83397593 3.04787891 4.34619141 5.98535156 C4.42991903 8.37595492 4.39747037 10.73450016 4.3125 13.125 C4.30283203 13.94871094 4.29316406 14.77242187 4.28320312 15.62109375 C4.16952328 21.66095344 4.16952328 21.66095344 3 24 C2.01 24 1.02 24 0 24 C0.16113281 23.45988281 0.32226562 22.91976562 0.48828125 22.36328125 C2.02658513 15.25890074 1.47059877 7.79414663 -1 1 C-0.67 0.67 -0.34 0.34 0 0 Z " fill="#334287" transform="translate(123,91)"/>
<path d="M0 0 C2 2 2 2 2.23046875 4.09375 C2.21628906 4.8878125 2.20210937 5.681875 2.1875 6.5 C2.18105469 7.2940625 2.17460937 8.088125 2.16796875 8.90625 C2 11 2 11 1 13 C1.99 13 2.98 13 4 13 C7 18.625 7 18.625 7 22 C3.37466103 19.35448237 0.76196386 17.1730723 -1 13 C-1.44379652 8.49748254 -1.22561836 4.35885239 0 0 Z " fill="#6D80C6" transform="translate(140,96)"/>
<path d="M0 0 C1.25127906 3.54667178 0.72285053 5.72253438 -0.4375 9.25 C-0.86869141 10.58804688 -0.86869141 10.58804688 -1.30859375 11.953125 C-1.53675781 12.62859375 -1.76492187 13.3040625 -2 14 C-2.66 14 -3.32 14 -4 14 C-4.33 15.32 -4.66 16.64 -5 18 C-6.32 18.33 -7.64 18.66 -9 19 C-7.39369175 14.75707468 -5.4231838 10.72974893 -3.375 6.6875 C-3.05015625 6.04232422 -2.7253125 5.39714844 -2.390625 4.73242188 C-1.59558044 3.15402459 -0.79804366 1.57688306 0 0 Z " fill="#CB3162" transform="translate(33,122)"/>
<path d="M0 0 C0.66 1.32 1.32 2.64 2 4 C0.68 6.64 -0.64 9.28 -2 12 C-8.27 12 -14.54 12 -21 12 C-21 11.01 -21 10.02 -21 9 C-20.01 8.67 -19.02 8.34 -18 8 C-18 8.99 -18 9.98 -18 11 C-13.38 11 -8.76 11 -4 11 C-4 10.01 -4 9.02 -4 8 C-3.34 8 -2.68 8 -2 8 C-2.33 6.68 -2.66 5.36 -3 4 C-2.34 4 -1.68 4 -1 4 C-0.67 2.68 -0.34 1.36 0 0 Z " fill="#D30B4D" transform="translate(45,132)"/>
<path d="M0 0 C1.65 0.33 3.3 0.66 5 1 C4.72510809 5.03174806 4.46508424 6.56894631 1.4375 9.375 C0.633125 9.91125 -0.17125 10.4475 -1 11 C-1.66 10.67 -2.32 10.34 -3 10 C-2.67 7.36 -2.34 4.72 -2 2 C-1.34 2 -0.68 2 0 2 C0 1.34 0 0.68 0 0 Z " fill="#1331AC" transform="translate(123,128)"/>
<path d="M0 0 C1.89213369 2.38573379 3.02391783 4.07175348 4 7 C2.71086513 7.67154933 1.41859796 8.33708859 0.125 9 C-0.59429687 9.37125 -1.31359375 9.7425 -2.0546875 10.125 C-4 11 -4 11 -6 11 C-5.33333333 9.33333333 -4.66666667 7.66666667 -4 6 C-3.505 4.63875 -3.505 4.63875 -3 3.25 C-2 1 -2 1 0 0 Z " fill="#D9124F" transform="translate(62,66)"/>
<path d="M0 0 C13.86 0 27.72 0 42 0 C42 0.33 42 0.66 42 1 C29.13 1 16.26 1 3 1 C3 2.65 3 4.3 3 6 C0 2.25 0 2.25 0 0 Z " fill="#0D2385" transform="translate(66,66)"/>
<path d="M0 0 C1.45742463 -0.08096803 2.91612807 -0.13917774 4.375 -0.1875 C5.18710938 -0.22230469 5.99921875 -0.25710937 6.8359375 -0.29296875 C7.55007812 -0.19628906 8.26421875 -0.09960938 9 0 C9.66 0.99 10.32 1.98 11 3 C4.68318756 6.03692906 4.68318756 6.03692906 1.6875 5.875 C0 5 0 5 -2 2 C-1.34 2 -0.68 2 0 2 C0 1.34 0 0.68 0 0 Z " fill="#1332B0" transform="translate(170,138)"/>
<path d="M0 0 C1.65 1.32 3.3 2.64 5 4 C3.59928507 9.29158974 0.14512755 11.77478044 -4 15 C-4 13.68 -4 12.36 -4 11 C-3.34 11 -2.68 11 -2 11 C-2.33 10.01 -2.66 9.02 -3 8 C-1.68 7.67 -0.36 7.34 1 7 C0.67 6.67 0.34 6.34 0 6 C-0.04080783 4.00041636 -0.04254356 1.99954746 0 0 Z " fill="#2E46AD" transform="translate(191,122)"/>
<path d="M0 0 C5.95703125 -0.390625 5.95703125 -0.390625 8 0 C8.99 1.32 9.98 2.64 11 4 C6.38 4 1.76 4 -3 4 C-2.67 3.34 -2.34 2.68 -2 2 C-1.34 2 -0.68 2 0 2 C0 1.34 0 0.68 0 0 Z " fill="#021F9C" transform="translate(160,140)"/>
<path d="M0 0 C-0.56589844 0.19335938 -1.13179687 0.38671875 -1.71484375 0.5859375 C-2.81505859 0.97652344 -2.81505859 0.97652344 -3.9375 1.375 C-5.03384766 1.75785156 -5.03384766 1.75785156 -6.15234375 2.1484375 C-8.18682116 2.85271413 -8.18682116 2.85271413 -9 5 C-8.01 5.33 -7.02 5.66 -6 6 C-6 6.66 -6 7.32 -6 8 C-5.01 8.33 -4.02 8.66 -3 9 C-3.33 9.99 -3.66 10.98 -4 12 C-5.5 10.625 -5.5 10.625 -7 9 C-7 8.34 -7 7.68 -7 7 C-7.639375 6.731875 -8.27875 6.46375 -8.9375 6.1875 C-11 5 -11 5 -12 2 C-7.75950782 -0.82699479 -4.85416215 -1.37070821 0 0 Z " fill="#C55F80" transform="translate(158,66)"/>
<path d="M0 0 C2.31 1.98 4.62 3.96 7 6 C6.34 7.32 5.68 8.64 5 10 C4.34 10 3.68 10 3 10 C3 9.01 3 8.02 3 7 C1.68 7.33 0.36 7.66 -1 8 C-0.67 5.36 -0.34 2.72 0 0 Z " fill="#1E36A9" transform="translate(181,112)"/>
<path d="M0 0 C0.66 0 1.32 0 2 0 C2.6875 1.8125 2.6875 1.8125 3 4 C1.875 5.625 1.875 5.625 0 7 C-2.69921875 7.29296875 -2.69921875 7.29296875 -5.6875 7.1875 C-6.68136719 7.16042969 -7.67523438 7.13335937 -8.69921875 7.10546875 C-9.45847656 7.07066406 -10.21773437 7.03585938 -11 7 C-11.33 6.34 -11.66 5.68 -12 5 C-8.04 4.34 -4.08 3.68 0 3 C0 2.01 0 1.02 0 0 Z " fill="#091C75" transform="translate(170,120)"/>
<path d="M0 0 C1.89668064 2.84502097 3.23263478 5.57299885 4.625 8.6875 C5.07101563 9.68136719 5.51703125 10.67523438 5.9765625 11.69921875 C6.31429687 12.45847656 6.65203125 13.21773437 7 14 C6.01 14.33 5.02 14.66 4 15 C2.02 10.71 0.04 6.42 -2 2 C-1.34 2 -0.68 2 0 2 C0 1.34 0 0.68 0 0 Z " fill="#F5DDF1" transform="translate(65,65)"/>
<path d="M0 0 C1.13890378 3.79367246 0.59374374 5.36980592 -1 9 C-1.36871088 10.65919896 -1.71281674 12.3247643 -2 14 C-2.99 14 -3.98 14 -5 14 C-5 14.66 -5 15.32 -5 16 C-5.66 16 -6.32 16 -7 16 C-5.35433477 10.31497465 -2.70967216 5.23318364 0 0 Z " fill="#C73C68" transform="translate(41,106)"/>
<path d="M0 0 C0.495 0.268125 0.99 0.53625 1.5 0.8125 C4.9236946 2.43875493 8.44132285 3.69515171 12 5 C8.3558226 7.4294516 6.28758728 7.16179575 2 7 C2 6.34 2 5.68 2 5 C1.34 5 0.68 5 0 5 C0 3.35 0 1.7 0 0 Z " fill="#25389B" transform="translate(148,119)"/>
<path d="M0 0 C1.8125 0.1875 1.8125 0.1875 4 1 C7 5.17857143 7 5.17857143 7 8 C8.65 8 10.3 8 12 8 C12 8.33 12 8.66 12 9 C7.545 9.495 7.545 9.495 3 10 C2.87625 9.278125 2.7525 8.55625 2.625 7.8125 C2.0095069 5.04278106 1.11555626 2.6029646 0 0 Z " fill="#E8D2EE" transform="translate(97,135)"/>
<path d="M0 0 C0.99 0.33 1.98 0.66 3 1 C1.58707905 5.8274799 -0.42974154 9.7162359 -3 14 C-3.33 14 -3.66 14 -4 14 C-4.125 11.125 -4.125 11.125 -4 8 C-3.34 7.34 -2.68 6.68 -2 6 C-2 5.34 -2 4.68 -2 4 C-1.34 4 -0.68 4 0 4 C0 2.68 0 1.36 0 0 Z " fill="#E93471" transform="translate(57,109)"/>
<path d="M0 0 C2.33300123 1.28717309 2.66738045 2.63819092 3.8125 5 C5.8460948 6.26804566 5.8460948 6.26804566 7.8125 7 C7.8125 7.99 7.8125 8.98 7.8125 10 C4.45629729 8.61122646 2.73951272 7.08322035 0.8125 4 C0.8125 3.34 0.8125 2.68 0.8125 2 C-0.13625 2.515625 -1.085 3.03125 -2.0625 3.5625 C-3.09375 4.036875 -4.125 4.51125 -5.1875 5 C-5.8475 4.67 -6.5075 4.34 -7.1875 4 C-2.82386364 0 -2.82386364 0 0 0 Z " fill="#42549F" transform="translate(141.1875,71)"/>
<path d="M0 0 C6.6 0 13.2 0 20 0 C20 0.33 20 0.66 20 1 C15.05 1.33 10.1 1.66 5 2 C5.99 3.485 5.99 3.485 7 5 C6.01 5 5.02 5 4 5 C2.68 3.35 1.36 1.7 0 0 Z " fill="#313F86" transform="translate(154,104)"/>
<path d="M0 0 C0 0.99 0 1.98 0 3 C1.30806361 5.10756824 1.30806361 5.10756824 3 7.1875 C3.8353125 8.26064453 3.8353125 8.26064453 4.6875 9.35546875 C5.120625 9.89816406 5.55375 10.44085938 6 11 C5.34 12.32 4.68 13.64 4 15 C3.75765625 14.48050781 3.5153125 13.96101563 3.265625 13.42578125 C1.22863922 9.18728392 -0.87828828 5.56767054 -4 2 C-2.68 1.34 -1.36 0.68 0 0 Z " fill="#22337C" transform="translate(136,75)"/>
<path d="M0 0 C1.0625 1.875 1.0625 1.875 2 4 C1.67 4.66 1.34 5.32 1 6 C0.34 6 -0.32 6 -1 6 C-1 6.66 -1 7.32 -1 8 C-1.99 8.33 -2.98 8.66 -4 9 C-4.99 10.485 -4.99 10.485 -6 12 C-6.66 11.01 -7.32 10.02 -8 9 C-6.576875 7.88625 -6.576875 7.88625 -5.125 6.75 C-2.67467599 4.72154781 -1.12674637 3.0422152 0 0 Z " fill="#2B3E86" transform="translate(122,115)"/>
<path d="M0 0 C4.48320733 1.36986891 6.2128011 3.31370468 9 7 C9.7425 7.556875 10.485 8.11375 11.25 8.6875 C11.8275 9.120625 12.405 9.55375 13 10 C13 10.66 13 11.32 13 12 C9.34435261 10.46563424 7.01301377 8.25017578 4.25 5.4375 C3.45078125 4.63183594 2.6515625 3.82617188 1.828125 2.99609375 C0 1 0 1 0 0 Z " fill="#BA325C" transform="translate(186,109)"/>
<path d="M0 0 C1.25348607 2.95106435 1.01044806 3.97406463 -0.21484375 7.015625 C-1.06755859 8.61664063 -1.06755859 8.61664063 -1.9375 10.25 C-2.50339844 11.32765625 -3.06929687 12.4053125 -3.65234375 13.515625 C-4.09707031 14.33546875 -4.54179688 15.1553125 -5 16 C-5.66 16 -6.32 16 -7 16 C-5.35433477 10.31497465 -2.70967216 5.23318364 0 0 Z " fill="#C4607E" transform="translate(55,77)"/>
<path d="M0 0 C0 0.66 0 1.32 0 2 C-4.1795645 4.78637633 -6.14668677 3.79562512 -11 3 C-7.72430636 -0.27569364 -4.48909309 -0.12469703 0 0 Z " fill="#213BAB" transform="translate(160,140)"/>
<path d="M0 0 C0.66 0.33 1.32 0.66 2 1 C1.67 2.32 1.34 3.64 1 5 C3.475 5.99 3.475 5.99 6 7 C6 7.66 6 8.32 6 9 C6.66 9.33 7.32 9.66 8 10 C7.34 10.66 6.68 11.32 6 12 C2.71211176 8.88983545 0.16264012 5.98381075 -2 2 C-1.34 1.34 -0.68 0.68 0 0 Z " fill="#20359C" transform="translate(115,80)"/>
<path d="M0 0 C1.1875 1.5625 1.1875 1.5625 2 4 C0.625 7.75 0.625 7.75 -1 11 C-1.99 11 -2.98 11 -4 11 C-4 10.01 -4 9.02 -4 8 C-3.34 8 -2.68 8 -2 8 C-2.33 6.68 -2.66 5.36 -3 4 C-2.34 4 -1.68 4 -1 4 C-0.67 2.68 -0.34 1.36 0 0 Z " fill="#DE095A" transform="translate(45,132)"/>
<path d="M0 0 C0.33 0.66 0.66 1.32 1 2 C3.02463255 2.65213292 3.02463255 2.65213292 5 3 C3.68 4.32 2.36 5.64 1 7 C0.01 6.34 -0.98 5.68 -2 5 C-1.34 3.35 -0.68 1.7 0 0 Z " fill="#1C38A8" transform="translate(131,122)"/>
<path d="M0 0 C1.5 1.375 1.5 1.375 3 3 C3 3.66 3 4.32 3 5 C4.29233607 6.37310707 5.62437146 7.71034824 7 9 C5.68 9.33 4.36 9.66 3 10 C0 3.375 0 3.375 0 0 Z " fill="#0528AE" transform="translate(165,107)"/>
<path d="M0 0 C1.32 0 2.64 0 4 0 C7 5.625 7 5.625 7 9 C4.56070254 7.07423885 2.19909405 5.19909405 0 3 C0 2.01 0 1.02 0 0 Z " fill="#6E7BA7" transform="translate(140,109)"/>
<path d="M0 0 C2 1.125 2 1.125 4 3 C4.25 6.1875 4.25 6.1875 4 9 C4.66 9.33 5.32 9.66 6 10 C5.01 10.66 4.02 11.32 3 12 C2.8046875 9.94921875 2.609375 7.8984375 2.4140625 5.84765625 C2.27742187 5.23792969 2.14078125 4.62820312 2 4 C1.34 3.67 0.68 3.34 0 3 C0 2.01 0 1.02 0 0 Z " fill="#06239A" transform="translate(187,119)"/>
<path d="M0 0 C1.32 0 2.64 0 4 0 C4 0.66 4 1.32 4 2 C4.66 2.33 5.32 2.66 6 3 C5.67 3.99 5.34 4.98 5 6 C5.66 6.33 6.32 6.66 7 7 C5.68 7 4.36 7 3 7 C2.01 4.69 1.02 2.38 0 0 Z " fill="#172D92" transform="translate(69,73)"/>
<path d="M0 0 C2.50037734 2.17424117 3.43628586 3.73045798 4 7 C3.01 7 2.02 7 1 7 C1 5.68 1 4.36 1 3 C-0.65 3 -2.3 3 -4 3 C-2.68 2.01 -1.36 1.02 0 0 Z " fill="#394A9F" transform="translate(63,129)"/>
<path d="M0 0 C0.66 0.99 1.32 1.98 2 3 C1.1875 4.9375 1.1875 4.9375 0 7 C-0.99 7.33 -1.98 7.66 -3 8 C-2.67 6.02 -2.34 4.04 -2 2 C-1.34 2 -0.68 2 0 2 C0 1.34 0 0.68 0 0 Z " fill="#EA0850" transform="translate(36,120)"/>
<path d="M0 0 C2.31 0 4.62 0 7 0 C5.515 2.475 5.515 2.475 4 5 C3.01 4.67 2.02 4.34 1 4 C0.3125 1.9375 0.3125 1.9375 0 0 Z " fill="#16227E" transform="translate(97,128)"/>
<path d="M0 0 C0.99 0 1.98 0 3 0 C3 0.66 3 1.32 3 2 C3.639375 2.2475 4.27875 2.495 4.9375 2.75 C7 4 7 4 7.62890625 6.078125 C7.75136719 6.71234375 7.87382812 7.3465625 8 8 C6.85073734 7.04578192 5.70569459 6.08647955 4.5625 5.125 C3.92441406 4.59132813 3.28632813 4.05765625 2.62890625 3.5078125 C1 2 1 2 0 0 Z " fill="#273586" transform="translate(160,110)"/>
<path d="M0 0 C0.66 0 1.32 0 2 0 C3.2890625 1.53125 3.2890625 1.53125 4.625 3.5 C5.07101563 4.1496875 5.51703125 4.799375 5.9765625 5.46875 C6.31429687 5.9740625 6.65203125 6.479375 7 7 C3.46013806 7 2.50484597 6.41847197 0 4 C0 2.68 0 1.36 0 0 Z " fill="#3747A1" transform="translate(174,105)"/>
<path d="M0 0 C1.37562854 1.28965176 2.70766393 2.62689293 4 4 C4 4.66 4 5.32 4 6 C3.34 6 2.68 6 2 6 C1.67 6.66 1.34 7.32 1 8 C0.34 5.69 -0.32 3.38 -1 1 C-0.67 0.67 -0.34 0.34 0 0 Z " fill="#3E4DA0" transform="translate(123,91)"/>
<path d="M0 0 C1.875 0.125 1.875 0.125 4 1 C5.25 4.0625 5.25 4.0625 6 7 C4.68 7 3.36 7 2 7 C2.33 5.35 2.66 3.7 3 2 C2.01 2 1.02 2 0 2 C0 1.34 0 0.68 0 0 Z " fill="#3043A6" transform="translate(130,79)"/>
<path d="M0 0 C2.50037734 2.17424117 3.43628586 3.73045798 4 7 C3.01 7.33 2.02 7.66 1 8 C0 7 0 7 -0.0625 3.4375 C-0.041875 2.303125 -0.02125 1.16875 0 0 Z " fill="#DD0D4E" transform="translate(65,73)"/>
<path d="M0 0 C0.33 0.99 0.66 1.98 1 3 C0.34 3.66 -0.32 4.32 -1 5 C-3.125 4.625 -3.125 4.625 -5 4 C-5 3.01 -5 2.02 -5 1 C-3 0 -3 0 0 0 Z " fill="#09249E" transform="translate(142,73)"/>
<path d="M0 0 C2.97 0.495 2.97 0.495 6 1 C6.33 2.65 6.66 4.3 7 6 C3.63279613 4.60667426 2.0140476 3.0210714 0 0 Z " fill="#CF3166" transform="translate(155,78)"/>
<path d="M0 0 C0.33 0.66 0.66 1.32 1 2 C2.32 2 3.64 2 5 2 C5.33 1.34 5.66 0.68 6 0 C6.33 0.99 6.66 1.98 7 3 C4.69 3.66 2.38 4.32 0 5 C-0.66 4.34 -1.32 3.68 -2 3 C-1.34 2.01 -0.68 1.02 0 0 Z " fill="#1A37B2" transform="translate(123,75)"/>
<path d="M0 0 C0.98726527 2.66561622 1.0275526 3.90126985 0.25 6.6875 C-1 9 -1 9 -4 10 C-2.66666667 6.66666667 -1.33333333 3.33333333 0 0 Z " fill="#C54C77" transform="translate(60,67)"/>
<path d="M0 0 C0.66 0 1.32 0 2 0 C2 0.99 2 1.98 2 3 C2.99 3 3.98 3 5 3 C4.67 4.65 4.34 6.3 4 8 C1.84622436 5.37801226 0.59927826 3.35595828 0 0 Z " fill="#D94073" transform="translate(76,133)"/>
<path d="M0 0 C2.45484649 2.13464912 3.68134222 3.70720291 4 7 C3.34 7.66 2.68 8.32 2 9 C-0.29013653 5.5647952 -0.17842973 4.014669 0 0 Z " fill="#DE2F65" transform="translate(69,80)"/>
<path d="M0 0 C2 3 2 3 3 6 C2.01 7.485 2.01 7.485 1 9 C0.01 6.69 -0.98 4.38 -2 2 C-1.34 2 -0.68 2 0 2 C0 1.34 0 0.68 0 0 Z " fill="#EFCCE2" transform="translate(65,65)"/>
<path d="M0 0 C0.68707555 2.49064888 1 4.37886292 1 7 C-0.32 7.33 -1.64 7.66 -3 8 C-2.690625 7.236875 -2.38125 6.47375 -2.0625 5.6875 C-1.32106407 3.81210323 -0.63771783 1.91315348 0 0 Z " fill="#1222A2" transform="translate(48,135)"/>
<path d="M0 0 C0.66 0 1.32 0 2 0 C3.125 3.75 3.125 3.75 2 6 C-0.97 5.505 -0.97 5.505 -4 5 C-2.68 4.34 -1.36 3.68 0 3 C0 2.01 0 1.02 0 0 Z " fill="#27377D" transform="translate(170,120)"/>
<path d="M0 0 C2.22189824 2.22189824 2.92598892 4.08482708 4 7 C3.34 7.66 2.68 8.32 2 9 C0.4375 6.1875 0.4375 6.1875 -1 3 C-0.67 2.01 -0.34 1.02 0 0 Z " fill="#D8426F" transform="translate(65,108)"/>
</svg>
